# xmcd
# Track frame offsets:
# 150
# 3210
# 29249
# 49514
# 67830
# 87615
# 103948
# 126071
# 148027
# 167391
# 185674
# 204768
# 220512
# 237609
#
# Disc length: 3420 seconds
# Revision: 0
# Processed by: cddbd v1.5.2PL0 Copyright (c) Steve Scherf et al.
# Submitted via: VisiTrax 2.11.2.271 - For more info visit www.synapsa.com
#
DISCID=c00d5a0e
DTITLE=Jamey Johnson - That Lonesome Song
DYEAR=2009
DGENRE=Country
TTITLE0=Released
TTITLE1=High Cost
TTITLE2=Angel
TTITLE3=Place Out On The Open
TTITLE4=Mowin' Down The Roses
TTITLE5=The Door Is Always Open
TTITLE6=Mary Go Round
TTITLE7=In Color
TTITLE8=The Last Cowboy
TTITLE9=That Lonesome Song
TTITLE10=Dreaming My Dreams
TTITLE11=Woman
TTITLE12=Stars In Alabama
TTITLE13=Between Jennings And Jones
EXTD=
EXTT0=
EXTT1=
EXTT2=
EXTT3=
EXTT4=
EXTT5=
EXTT6=
EXTT7=
EXTT8=
EXTT9=
EXTT10=
EXTT11=
EXTT12=
EXTT13=
PLAYORDER=
